<?xml version="1.0" encoding="UTF-8" standalone="no"?>
<svg
   xmlns:dc="http://purl.org/dc/elements/1.1/"
   xmlns:cc="http://creativecommons.org/ns#"
   xmlns:rdf="http://www.w3.org/1999/02/22-rdf-syntax-ns#"
   xmlns:svg="http://www.w3.org/2000/svg"
   xmlns="http://www.w3.org/2000/svg"
   viewBox="0 0 700 149"
   height="149"
   width="700"
   xml:space="preserve"
   version="1.1"
   id="svg2"><metadata
     id="metadata8"><rdf:RDF><cc:Work
         rdf:about=""><dc:format>image/svg+xml</dc:format><dc:type
           rdf:resource="http://purl.org/dc/dcmitype/StillImage" /><dc:title></dc:title></cc:Work></rdf:RDF></metadata><defs
     id="defs6" /><g
     transform="matrix(1.25,0,0,-1.25,0,148.99997)"
     id="g10"><g
       transform="matrix(3.1484588,0,0,3.1484588,-679.41254,-375.69963)"
       id="g4406"><g
         id="g36"
         transform="translate(225.8991,157.0491)"
         style="fill:#800000"><path
           d="m 0,0 -10.107,-37.721 1.546,0 0.055,0 126.905,0 9.692,36.175 0.014,0.052 0.401,1.494 z"
           style="fill:#6e6b70;fill-opacity:1;fill-rule:nonzero;stroke:none"
           id="path38" /></g><g
         id="g4386"><g
           style="fill:#009653;fill-opacity:1"
           transform="translate(381.9969,157.0491)"
           id="g40"><path
             id="path42"
             style="fill:#009653;fill-opacity:1;fill-rule:nonzero;stroke:none"
             d="m 0,0 -3.122,-11.658 11.658,0 L 11.66,0 0,0 Z" /></g><g
           style="fill:#009653;fill-opacity:1"
           transform="translate(387.0399,132.3598)"
           id="g44"><path
             id="path46"
             style="fill:#009653;fill-opacity:1;fill-rule:nonzero;stroke:none"
             d="m 0,0 -11.658,0 3.123,11.66 11.661,0 L 0,0 Z" /></g><g
           style="fill:#009653;fill-opacity:1"
           transform="translate(375.0138,130.9869)"
           id="g48"><path
             id="path50"
             style="fill:#009653;fill-opacity:1;fill-rule:nonzero;stroke:none"
             d="m 0,0 -3.124,-11.658 11.66,0 L 11.66,0 0,0 Z" /></g><g
           style="fill:#009653;fill-opacity:1"
           transform="translate(368.9649,157.0491)"
           id="g52"><path
             id="path54"
             style="fill:#009653;fill-opacity:1;fill-rule:nonzero;stroke:none"
             d="m 0,0 -3.122,-11.658 11.66,0 L 11.659,0 0,0 Z" /></g><g
           style="fill:#009653;fill-opacity:1"
           transform="translate(374.0084,132.3598)"
           id="g56"><path
             id="path58"
             style="fill:#009653;fill-opacity:1;fill-rule:nonzero;stroke:none"
             d="m 0,0 -11.66,0 3.125,11.66 11.661,0 L 0,0 Z" /></g><g
           style="fill:#009653;fill-opacity:1"
           transform="translate(361.9827,130.9869)"
           id="g60"><path
             id="path62"
             style="fill:#009653;fill-opacity:1;fill-rule:nonzero;stroke:none"
             d="m 0,0 -3.125,-11.658 11.661,0 L 11.66,0 0,0 Z" /></g><g
           style="fill:#009653;fill-opacity:1"
           transform="translate(355.932,157.0491)"
           id="g64"><path
             id="path66"
             style="fill:#009653;fill-opacity:1;fill-rule:nonzero;stroke:none"
             d="m 0,0 -3.122,-11.658 11.66,0 L 11.662,0 0,0 Z" /></g><g
           style="fill:#009653;fill-opacity:1"
           transform="translate(360.9769,132.3598)"
           id="g68"><path
             id="path70"
             style="fill:#009653;fill-opacity:1;fill-rule:nonzero;stroke:none"
             d="m 0,0 -11.66,0 3.127,11.66 11.658,0 L 0,0 Z" /></g><g
           style="fill:#009653;fill-opacity:1"
           transform="translate(348.9498,130.9869)"
           id="g72"><path
             id="path74"
             style="fill:#009653;fill-opacity:1;fill-rule:nonzero;stroke:none"
             d="m 0,0 -3.124,-11.658 11.66,0 L 11.661,0 0,0 Z" /></g></g><g
         id="g4378"
         style="fill:#ffffff"><path
           d="m 244.7937,140.3156 c -0.012,0.544 -0.045,1.232 -0.001,1.958 l -0.036,0 c -0.328,-0.652 -0.781,-1.45 -1.091,-1.958 l -2.806,-4.604 4.041,0 -0.107,4.604 z m 0.657,-14.719 -0.35,5.692 -7.245,0 -3.762,-5.692 -6.043,0 16.533,23.964 4.842,0 2.139,-23.964 -6.114,0 z"
           style="fill:#ffffff;fill-opacity:1;fill-rule:nonzero;stroke:none"
           id="path86" /><path
           d="m 276.0096,144.1222 c -1.682,0.907 -2.993,1.233 -4.959,1.233 -5.751,0 -9.308,-4.496 -9.78,-8.738 -0.436,-3.914 1.362,-6.742 5.474,-6.742 1.42,0 2.981,0.289 5.007,1.16 l 0.24,-4.06 c -2.875,-1.307 -5.325,-1.741 -8.129,-1.741 -6.697,0 -9.421,4.966 -8.837,10.223 1.02,9.173 8.796,14.284 16.731,14.284 1.966,0 4.15,-0.326 5.812,-1.087 l -1.559,-4.532 z"
           style="fill:#ffffff;fill-opacity:1;fill-rule:nonzero;stroke:none"
           id="path90" /><path
           d="m 296.9596,144.9559 -6.407,0 -6.411,-19.359 -5.642,0 6.411,19.359 -7.061,0 1.486,4.532 19.839,0 -2.215,-4.532 z"
           style="fill:#ffffff;fill-opacity:1;fill-rule:nonzero;stroke:none"
           id="path94" /><path
           d="m 299.5745,125.5964 -5.642,0 7.935,23.891 5.642,0 -7.935,-23.891 z"
           style="fill:#ffffff;fill-opacity:1;fill-rule:nonzero;stroke:none"
           id="path98" /><path
           d="m 319.3013,140.3156 c -0.012,0.544 -0.044,1.232 0,1.958 l -0.036,0 c -0.328,-0.652 -0.781,-1.45 -1.092,-1.958 l -2.805,-4.604 4.04,0 -0.107,4.604 z m 0.657,-14.719 -0.35,5.692 -7.244,0 -3.763,-5.692 -6.042,0 16.532,23.964 4.842,0 2.14,-23.964 -6.115,0 z"
           style="fill:#ffffff;fill-opacity:1;fill-rule:nonzero;stroke:none"
           id="path102" /><path
           d="m 334.6648,147.107 -0.403,0 -0.181,-1.627 0.34,0 c 0.572,0 1.091,0.274 1.155,0.845 0.059,0.529 -0.253,0.782 -0.911,0.782 m 0.874,-4.734 c -0.693,1.395 -1.04,2.282 -1.274,2.282 l -0.275,0 -0.255,-2.282 -0.998,0 0.622,5.579 1.57,0 c 1.231,0 1.816,-0.655 1.72,-1.521 -0.102,-0.909 -0.847,-1.31 -1.374,-1.479 l 0.018,-0.022 c 0.224,-0.084 0.783,-1.162 1.434,-2.557 l -1.188,0 z m -0.332,6.742 c -2.207,0 -3.995,-1.754 -4.245,-4.016 -0.253,-2.262 1.145,-4.015 3.353,-4.015 2.206,0 3.993,1.753 4.244,4.015 0.252,2.262 -1.145,4.016 -3.352,4.016 m -1.001,-9.004 c -2.908,0 -4.641,2.156 -4.327,4.988 0.315,2.833 2.55,4.989 5.457,4.989 2.843,0 4.726,-2.156 4.412,-4.989 -0.317,-2.832 -2.72,-4.988 -5.542,-4.988"
           style="fill:#ffffff;fill-opacity:1;fill-rule:nonzero;stroke:none"
           id="path106" /></g></g></g></svg>
